<svg xmlns="http://www.w3.org/2000/svg" xmlns:xlink="http://www.w3.org/1999/xlink" width="1000" zoomAndPan="magnify" viewBox="0 0 750 749.999995" height="1000" preserveAspectRatio="xMidYMid meet" version="1.0"><defs><clipPath id="8cda674b56"><path d="M 105.511719 0 L 644.488281 0 L 644.488281 750 L 105.511719 750 Z M 105.511719 0 " clip-rule="nonzero"/></clipPath><clipPath id="c47a306aab"><path d="M 644.488281 0 L 644.488281 652.984375 L 375 750 L 105.511719 652.984375 L 105.511719 0 L 644.488281 0 " clip-rule="nonzero"/></clipPath><clipPath id="20cd3fb23b"><path d="M 170 45 L 579.234375 45 L 579.234375 645 L 170 645 Z M 170 45 " clip-rule="nonzero"/></clipPath><clipPath id="74b5fd0fc0"><path d="M 170.765625 45.519531 L 170.765625 177.136719 L 304.652344 177.136719 L 304.652344 644.601562 L 445.347656 644.601562 L 445.347656 177.136719 L 579.234375 177.136719 L 579.234375 45.519531 C 579.234375 45.519531 170.3125 45.0625 170.765625 45.519531 Z M 170.765625 45.519531 " clip-rule="nonzero"/></clipPath></defs><g clip-path="url(#8cda674b56)"><g clip-path="url(#c47a306aab)"><path fill="#737373" d="M 105.511719 0 L 644.488281 0 L 644.488281 754.570312 L 105.511719 754.570312 Z M 105.511719 0 " fill-opacity="1" fill-rule="nonzero"/></g></g><g clip-path="url(#20cd3fb23b)"><g clip-path="url(#74b5fd0fc0)"><path fill="#ffffff" d="M 170.765625 45.292969 L 579.234375 45.292969 L 579.234375 644.375 L 170.765625 644.375 Z M 170.765625 45.292969 " fill-opacity="1" fill-rule="nonzero"/></g></g></svg>